<svg xmlns="http://www.w3.org/2000/svg" width="21.848" height="17" viewBox="0 0 21.848 17"><defs><style>.a{fill:#616161;}</style></defs><path class="a" d="M21.8,54.252a58.758,58.758,0,0,1-.71-6.146c.008-.816-.186-1.346-.578-1.575a1.052,1.052,0,0,0-1.069.07,1.6,1.6,0,0,0-.614.714l-.094-.15c-.143-.226-.286-.459-.424-.684-.326-.53-.662-1.078-1.028-1.6l-.146-.208a9.228,9.228,0,0,0-1.426-1.757,1.321,1.321,0,0,0-1.362-.253.99.99,0,0,0-.418.367L13.868,43a1.438,1.438,0,0,0-1.337.1,1.071,1.071,0,0,0-.433.955,1.573,1.573,0,0,0-.628.6,2.033,2.033,0,0,0-.163,1.474,1.836,1.836,0,0,0-.387.56,1.839,1.839,0,0,0-.387-.56,2.034,2.034,0,0,0-.163-1.474,1.573,1.573,0,0,0-.628-.6,1.07,1.07,0,0,0-.433-.955A1.438,1.438,0,0,0,7.974,43l-.064.028a.991.991,0,0,0-.418-.367,1.321,1.321,0,0,0-1.362.253A9.228,9.228,0,0,0,4.7,44.673l-.146.208c-.367.521-.7,1.07-1.03,1.6-.138.224-.28.456-.423.682l-.094.15A1.6,1.6,0,0,0,2.4,46.6a1.052,1.052,0,0,0-1.069-.07c-.392.229-.587.759-.578,1.575a58.9,58.9,0,0,1-.71,6.146,2.725,2.725,0,0,0,.107,1.383,24.879,24.879,0,0,0,2.226,3.8l.526-.354A22.994,22.994,0,0,1,.746,55.427a2.107,2.107,0,0,1-.081-1.069,59.452,59.452,0,0,0,.719-6.241s0-.008,0-.012c-.009-.8.2-.989.264-1.027.142-.083.366.033.431.071a1.6,1.6,0,0,1,.552.943,16.138,16.138,0,0,1,.456,5.3,3.011,3.011,0,0,1,2.567,1.179,3.28,3.28,0,0,0-2.359-1.4,16.132,16.132,0,0,0-.1-4.954.305.305,0,0,0,.019-.025l.122-.2c.11-.177.209-.336.308-.494.144-.229.288-.462.426-.688.321-.522.653-1.063,1.008-1.567l.147-.21a9.488,9.488,0,0,1,1.29-1.616.726.726,0,0,1,.71-.183c.122.057.295.25.1,1.11a18.055,18.055,0,0,1-2.541,5.2c1.138-1.555,3.073-3.712,3.21-5.8a.661.661,0,0,1,.215-.148.818.818,0,0,1,.733.032.444.444,0,0,1,.166.416c0,.044-.014.127-.021.169,0,0,0,.006,0,.009h0a21.566,21.566,0,0,1-2.124,5.4A22.615,22.615,0,0,0,9.413,44.6c.233.106.759.474.461,1.567,0,0,0,.006,0,.009a25.634,25.634,0,0,1-1.5,4.01,26.624,26.624,0,0,0,1.766-3.549,1.871,1.871,0,0,1,.379.98c.026.571-.138,1.89-1.507,4.34a1.707,1.707,0,0,0,.2,1.822,3.859,3.859,0,0,1,.515,1.372,7.21,7.21,0,0,1-1.28,4.077l.537.338a7.739,7.739,0,0,0,1.372-4.5,4.447,4.447,0,0,0-.586-1.589c-.3-.554-.426-.816-.206-1.209a14.605,14.605,0,0,0,1.354-3.1,14.613,14.613,0,0,0,1.355,3.1c.22.393.1.655-.206,1.209a4.447,4.447,0,0,0-.586,1.589,7.738,7.738,0,0,0,1.372,4.5l.537-.338a7.209,7.209,0,0,1-1.28-4.077,3.859,3.859,0,0,1,.515-1.372,1.707,1.707,0,0,0,.2-1.821c-1.369-2.449-1.532-3.769-1.507-4.34a1.871,1.871,0,0,1,.379-.98,26.613,26.613,0,0,0,1.766,3.549,25.635,25.635,0,0,1-1.5-4.01s0-.006,0-.009c-.3-1.1.23-1.463.461-1.567a22.63,22.63,0,0,0,2.449,5.02,28.6,28.6,0,0,1-2.146-5.581.416.416,0,0,1,.166-.417.818.818,0,0,1,.733-.032.664.664,0,0,1,.215.148c.136,2.093,2.071,4.25,3.21,5.805-1.046-1.721-2.648-3.887-2.645-6h0a.364.364,0,0,1,.207-.3.725.725,0,0,1,.71.183,9.485,9.485,0,0,1,1.29,1.616l.147.21c.355.5.686,1.044,1.007,1.565.139.227.283.461.428.69.1.155.194.31.3.482l.129.208c.006.009.012.017.019.025a16.134,16.134,0,0,0-.1,4.954,3.28,3.28,0,0,0-2.359,1.4,3.01,3.01,0,0,1,2.567-1.179,16.137,16.137,0,0,1,.456-5.3,1.607,1.607,0,0,1,.552-.943c.065-.038.289-.154.431-.071.064.038.273.223.264,1.027,0,0,0,.008,0,.012a59.387,59.387,0,0,0,.719,6.241,2.106,2.106,0,0,1-.081,1.069,23,23,0,0,1-2.154,3.659l.526.354a24.879,24.879,0,0,0,2.226-3.8A2.728,2.728,0,0,0,21.8,54.252Z" transform="translate(0.003 -42.567)"/></svg>