<svg xmlns="http://www.w3.org/2000/svg" width="35.467" height="35.606" viewBox="0 0 35.467 35.606"><defs><style>.a{fill:#616161;}</style></defs><path class="a" d="M243.389,162.94l15.394,3.848a1.055,1.055,0,0,0,.506,0l15.394-3.848,2.086-.522V159.7l-.284.071-16.69,4.173a3.132,3.132,0,0,1-1.519,0L241.3,159.7v2.718Zm0,0" transform="translate(-241.303 -151.521)"/><path class="a" d="M259.037,168.751,241.3,164.317v17.47a1.043,1.043,0,0,0,.791,1.011l4.077,1.02v-9.855a1.043,1.043,0,0,1,1.3-1.011l6.954,1.738a1.042,1.042,0,0,1,.79,1.011v10.377l3.572.892a1.022,1.022,0,0,0,.506,0l16.69-4.173a1.042,1.042,0,0,0,.791-1.011v-17.47Zm0,0" transform="translate(-241.303 -151.397)"/><path class="a" d="M259.037,162.165a1.059,1.059,0,0,1-.254-.031l-16.69-4.173a1.043,1.043,0,0,1,0-2.024l16.69-4.173a1.055,1.055,0,0,1,.506,0l16.69,4.173a1.043,1.043,0,0,1,0,2.024l-16.69,4.173a1.057,1.057,0,0,1-.253.031Zm0,0" transform="translate(-241.303 -151.734)"/><path class="a" d="M248.076,184.054l4.868,1.217V176.23l-4.868-1.217Zm0,0" transform="translate(-241.122 -151.111)"/></svg>