<svg xmlns="http://www.w3.org/2000/svg" width="15.16" height="17.14" viewBox="0 0 15.16 17.14"><defs><style>.a{fill:#616161;}</style></defs><path class="a" d="M1161.134,70.8a.075.075,0,0,1-.075-.075V57.959a1.046,1.046,0,0,0-1.045-1.045h-12.77a1.046,1.046,0,0,0-1.045,1.045v12.77a.075.075,0,0,1-.15,0V57.959a1.2,1.2,0,0,1,1.2-1.2h12.77a1.2,1.2,0,0,1,1.195,1.2v12.77A.075.075,0,0,1,1161.134,70.8Z" transform="translate(-1146.049 -56.764)"/><path class="a" d="M1163.659,60.934V73.7a.67.67,0,0,1-.67.67h-3.6l-2.309,2.309a.67.67,0,0,1-.948,0l-2.308-2.309h-3.6a.67.67,0,0,1-.67-.67V60.934a.67.67,0,0,1,.67-.67h12.77A.67.67,0,0,1,1163.659,60.934ZM1157.106,69a1.9,1.9,0,0,1,.392-1.265l.709-.7a2.694,2.694,0,0,0,.877-1.854,2.109,2.109,0,0,0-.649-1.646,2.593,2.593,0,0,0-1.809-.589,2.658,2.658,0,0,0-1.809.595,2.066,2.066,0,0,0-.7,1.617h1.4a.977.977,0,0,1,.3-.756,1.133,1.133,0,0,1,.8-.279,1.03,1.03,0,0,1,.787.285,1.162,1.162,0,0,1,.268.827,1.36,1.36,0,0,1-.231.76,5.755,5.755,0,0,1-.713.777A2.568,2.568,0,0,0,1155.8,69Zm-1.2,2.32a.775.775,0,0,0,.586.213.785.785,0,0,0,.589-.213.727.727,0,0,0,.208-.529.741.741,0,0,0-.214-.543.9.9,0,0,0-1.16-.006.8.8,0,0,0-.009,1.078Z" transform="translate(-1149.024 -59.739)"/></svg>