<svg xmlns="http://www.w3.org/2000/svg" width="47.032" height="33.698" viewBox="0 0 47.032 33.698"><defs><style>.a{fill:#005b7f;}</style></defs><g transform="translate(0)"><path class="a" d="M83.327,73.534H61.773c1.913-1.962,5.867-3.244,10.2-3.244a16.68,16.68,0,0,1,9.276,2.454l.942-1.319a18.047,18.047,0,0,0-10.217-2.757,22.639,22.639,0,0,0-4.6.464A21.159,21.159,0,0,1,71.031,68a16.677,16.677,0,0,1,9.584.473l.649-1.487a15.676,15.676,0,0,0-6.908-1.041l3.757-3.757-5.123-5.123V49.824H65.745L60.622,44.7,55.5,49.824H48.255v7.245l-5.123,5.123,3.754,3.754a15.732,15.732,0,0,0-6.9,1.039l.649,1.488A16.68,16.68,0,0,1,50.215,68a21.179,21.179,0,0,1,3.657,1.129,22.623,22.623,0,0,0-4.6-.46,18.046,18.046,0,0,0-10.217,2.757l.941,1.32a16.671,16.671,0,0,1,9.276-2.456c4.334,0,8.288,1.282,10.2,3.244H37.917a.811.811,0,0,0-.811.811v3.244a.811.811,0,0,0,.811.811h45.41a.811.811,0,0,0,.811-.811V74.345A.811.811,0,0,0,83.327,73.534ZM59.811,76.777H38.728V75.156H59.811Zm.811-4.739c-1.834-2.536-5.6-4.67-10.072-5.622-.306-.065-.61-.112-.915-.165l-4.061-4.061,4.407-4.407V51.551h6.233l4.407-4.407,4.407,4.407h6.233v6.233l4.407,4.407L71.6,66.256c-.3.052-.6.1-.908.165C66.217,67.371,62.455,69.5,60.622,72.039Zm21.894,4.739H61.433V75.156H82.516Z" transform="translate(-37.106 -44.701)"/><path class="a" d="M129.5,94.533a.786.786,0,0,1-.666.368h-3.7c-.967,0-1.1.459-1.106.471V90.215h0a.483.483,0,0,0-.41.227l-.51.845-.263-.013a.443.443,0,0,0-.445.443h.129a.218.218,0,0,1,.217.218v5.631h1.282V96.484c0-.557.782-.526.977-.509.033,0,.065,0,.1,0h3.779v1.653H121.4V93.9a.483.483,0,0,0-.41.227l-.51.845-.263-.013a.443.443,0,0,0-.445.443h.129a.218.218,0,0,1,.218.218v2.016h-1.576V93.9a.484.484,0,0,0-.41.227l-.51.845-.263-.013a.443.443,0,0,0-.445.443h.129a.218.218,0,0,1,.218.218v2.016h-1.189V92.394a.484.484,0,0,0-.41.227l-.51.845-.263-.013a.443.443,0,0,0-.445.443h.129a.218.218,0,0,1,.218.218v.731l-2.077,2.163a3.336,3.336,0,0,0-.993,2.374,2.477,2.477,0,0,0,2.724,2.543,2.148,2.148,0,0,0,1.975-1.986s-1.114,1.477-2.349,1.041-2.385-2.18.721-4.723v2.656h15.377V93.9a.484.484,0,0,0-.41.227Z" transform="translate(-97.432 -81.497)"/><path class="a" d="M169.359,137.617h.174a1.1,1.1,0,0,0,1.1-.872v-.774h-1.272Z" transform="translate(-144.027 -118.489)"/><path class="a" d="M114.636,108.807a.509.509,0,1,0-.509-.509A.509.509,0,0,0,114.636,108.807Z" transform="translate(-99.374 -95.706)"/><ellipse class="a" cx="0.509" cy="0.509" rx="0.509" ry="0.509" transform="translate(15.884 12.084)"/><path class="a" d="M154.541,139.763a.509.509,0,1,0,.509.509A.509.509,0,0,0,154.541,139.763Z" transform="translate(-131.636 -121.555)"/><path class="a" d="M140.943,139.763a.509.509,0,1,0,.509.509A.509.509,0,0,0,140.943,139.763Z" transform="translate(-120.642 -121.555)"/><path class="a" d="M160.449,139.763a.509.509,0,1,0,.509.509A.509.509,0,0,0,160.449,139.763Z" transform="translate(-136.412 -121.555)"/></g></svg>