<svg xmlns="http://www.w3.org/2000/svg" width="50.38" height="35.825" viewBox="0 0 50.38 35.825"><defs><style>.a{fill:#616161;}</style></defs><path class="a" d="M161.2,186.029c.815-.976,1.578-1.805,2.243-2.7,2.521-3.4,5.1-6.761,7.493-10.242,4.01-5.83,9.575-8.341,16.811-8.014a16.729,16.729,0,0,1,13.587,7.411c2.892,4.024,5.915,7.963,8.889,11.933.387.517.833.993,1.358,1.614Z" transform="translate(-161.203 -150.204)"/><g transform="translate(20.303)"><path class="a" d="M188.847,154.164l-4.887,1.179,4.887,1.179,4.887-1.179Z" transform="translate(-183.96 -151.777)"/><path class="a" d="M183.96,155.365v12.628l4.887,1.179V156.544Z" transform="translate(-183.96 -151.799)"/><path class="a" d="M193.823,155.365v12.628l-4.887,1.179V156.544Z" transform="translate(-184.049 -151.799)"/><path class="a" d="M183.96,155.3l4.887-3.566v4.745Z" transform="translate(-183.96 -151.734)"/><path class="a" d="M188.936,151.734l4.887,3.566-4.887,1.179Z" transform="translate(-184.049 -151.734)"/></g></svg>